<svg version="1" xmlns="http://www.w3.org/2000/svg" width="933.333" height="933.333" viewBox="0 0 700.000000 700.000000"><path d="M337.8 92.5c-.2.2-4.3.6-9.3 1-4.9.4-9.2.8-9.5 1-.3.2-2.7.6-5.5.9-2.7.4-6.8 1.1-9 1.6s-5.1 1.1-6.5 1.4c-13.7 2.7-36.2 10.7-53.1 19-61.5 30.1-107.5 86.7-123.1 151.6-2.3 9.8-2.2 9.2-3.8 19-.6 4.1-1.3 8.6-1.6 10-1.8 10.9-2.6 60.9-1.2 81.5 3.6 52.7 21.1 100.7 51.1 140.5 8.4 11.1 28.4 31.5 37.7 38.6 3.6 2.7 6.7 5.2 7 5.5.3.4 5 3.6 10.6 7.2 31.3 20.5 66.4 32.1 106.9 35.4 17.3 1.4 54.8.7 67.5-1.3 1.9-.3 7.8-1.2 13-2 7.9-1.2 15.4-2.8 28-5.9.8-.2 4.9-1.5 9-2.8 37-12.1 66.6-32.5 92.7-63.8 12.8-15.5 18.6-24.5 28.3-44.4 5.5-11.4 13.6-32.5 12.4-32.5-.3 0-13-3.3-28.2-7.4-41.7-11.2-43.1-11.6-44-11.6-.5 0-1.4 1.9-2.1 4.2-2.1 7.3-12.6 27.8-18.9 37.3-6 8.9-16.3 20.3-23.1 25.3-2 1.5-3.8 3-4.1 3.3-1.5 1.9-16.5 10.7-24.4 14.4-13.7 6.4-31.3 11.6-44.1 13-2.7.3-8.1 1-12 1.5-7.4.9-44.1.6-51-.4-39.8-6-67.1-18.8-90.4-42.6-13.8-14.1-26-33.3-32.8-51.4-.8-2.2-1.9-5-2.3-6.1-4.6-10.8-9.9-39.2-10.4-55l-.1-4.9 196-.2c107.8-.1 196.5-.2 197.1-.3.9-.1 1.1-10.8.9-39.9-.2-21.8-.5-40.7-.8-41.8-.5-2.1-1.1-5.2-2.3-13.2-1.5-9.8-9.4-36.9-14.2-48.6-13-31.6-35.6-62.4-61.7-84-9.7-8-9.4-7.8-17.6-13.3-31.3-21-67.3-34.8-98.4-37.8-3.8-.4-7.4-1-7.9-1.2-.8-.6-44.3-1.3-44.8-.8zm38.7 74c18 2.9 29.4 6.1 45.5 13.1 12.5 5.4 30 16.7 39.5 25.5 8.1 7.5 9.2 8.5 14.1 14.4 7.2 8.5 12.4 16.4 18.3 28.2 8.5 17.1 12.1 29.6 14.5 51.4l.4 3.7H350.9c-86.8 0-157.9-.1-157.9-.3 0-2 4.6-22 6.6-28.5 2.2-7.2 11.6-28 15.7-34.5 4.1-6.6 7.3-11.1 13.6-19 5.8-7.2 20.4-20.5 28.7-26.2 18.6-12.7 47.5-24.2 67.9-26.9 2.8-.3 6.8-.9 9-1.3 6.6-1.2 33.4-.9 42 .4z"/></svg>